<svg width="160" height="101" viewBox="0 0 160 101" fill="none" xmlns="http://www.w3.org/2000/svg">
<g clip-path="url(#clip0_356_231)">
<rect x="0.5" y="0.534424" width="11.7566" height="11.7566" rx="5.87831" fill="#D8D8D8"/>
<rect x="29.8916" y="0.534424" width="11.7566" height="11.7566" rx="5.87831" fill="#D8D8D8"/>
<rect x="59.2832" y="0.534424" width="11.7566" height="11.7566" rx="5.87831" fill="#D8D8D8"/>
<rect x="88.6748" y="0.534424" width="11.7566" height="11.7566" rx="5.87831" fill="#D8D8D8"/>
<rect x="118.066" y="0.534424" width="11.7566" height="11.7566" rx="5.87831" fill="#D8D8D8"/>
<rect x="147.458" y="0.534424" width="11.7566" height="11.7566" rx="5.87831" fill="#D8D8D8"/>
<rect x="0.5" y="29.926" width="11.7566" height="11.7566" rx="5.87831" fill="#D8D8D8"/>
<rect x="29.8916" y="29.926" width="11.7566" height="11.7566" rx="5.87831" fill="#D8D8D8"/>
<rect x="59.2832" y="29.926" width="11.7566" height="11.7566" rx="5.87831" fill="#D8D8D8"/>
<rect x="88.6748" y="29.926" width="11.7566" height="11.7566" rx="5.87831" fill="#D8D8D8"/>
<rect x="118.066" y="29.926" width="11.7566" height="11.7566" rx="5.87831" fill="#D8D8D8"/>
<rect x="147.458" y="29.926" width="11.7566" height="11.7566" rx="5.87831" fill="#D8D8D8"/>
<rect x="0.5" y="59.3174" width="11.7566" height="11.7566" rx="5.87831" fill="#D8D8D8"/>
<rect x="29.8916" y="59.3174" width="11.7566" height="11.7566" rx="5.87831" fill="#D8D8D8"/>
<rect x="59.2832" y="59.3174" width="11.7566" height="11.7566" rx="5.87831" fill="#D8D8D8"/>
<rect x="88.6748" y="59.3174" width="11.7566" height="11.7566" rx="5.87831" fill="#D8D8D8"/>
<rect x="118.066" y="59.3174" width="11.7566" height="11.7566" rx="5.87831" fill="#D8D8D8"/>
<rect x="147.458" y="59.3174" width="11.7566" height="11.7566" rx="5.87831" fill="#D8D8D8"/>
<rect x="0.5" y="88.709" width="11.7566" height="11.7566" rx="5.87831" fill="#D8D8D8"/>
<rect x="29.8916" y="88.709" width="11.7566" height="11.7566" rx="5.87831" fill="#D8D8D8"/>
<rect x="59.2832" y="88.709" width="11.7566" height="11.7566" rx="5.87831" fill="#D8D8D8"/>
<rect x="88.6748" y="88.709" width="11.7566" height="11.7566" rx="5.87831" fill="#D8D8D8"/>
<rect x="118.066" y="88.709" width="11.7566" height="11.7566" rx="5.87831" fill="#D8D8D8"/>
<rect x="147.458" y="88.709" width="11.7566" height="11.7566" rx="5.87831" fill="#D8D8D8"/>
</g>
<defs>
<clipPath id="clip0_356_231">
<rect width="159" height="101" fill="white" transform="translate(0.5)"/>
</clipPath>
</defs>
</svg>
