<svg width="112" height="112" viewBox="0 0 112 112" fill="none" xmlns="http://www.w3.org/2000/svg">
<rect x="0.5" y="0.5" width="111" height="111" rx="55.5" fill="black" fill-opacity="0.48"/>
<path d="M80.2813 56.0001C80.2827 56.589 80.1317 57.1682 79.843 57.6815C79.5542 58.1947 79.1376 58.6245 78.6336 58.929L47.3975 78.0375C46.8709 78.36 46.2677 78.536 45.6503 78.5475C45.0329 78.5589 44.4236 78.4053 43.8854 78.1025C43.3523 77.8045 42.9082 77.3698 42.5988 76.8432C42.2894 76.3167 42.1259 75.7172 42.125 75.1064V36.8938C42.1259 36.283 42.2894 35.6836 42.5988 35.157C42.9082 34.6304 43.3523 34.1957 43.8854 33.8977C44.4236 33.5949 45.0329 33.4413 45.6503 33.4527C46.2677 33.4642 46.8709 33.6402 47.3975 33.9627L78.6336 53.0712C79.1376 53.3757 79.5542 53.8055 79.843 54.3188C80.1317 54.832 80.2827 55.4112 80.2813 56.0001Z" fill="white"/>
</svg>
