<svg width="173" height="169" viewBox="0 0 173 169" fill="none" xmlns="http://www.w3.org/2000/svg">
<g opacity="0.6">
<path d="M54.1231 93.0173V101.555H35.1504V92.0687C35.1504 59.5859 61.4829 33.2534 93.9656 33.2534H171.754V53.1747H93.9657C71.9612 53.1747 54.1231 71.0129 54.1231 93.0173Z" stroke="black" stroke-opacity="0.22" stroke-width="1.89727"/>
<path d="M118.631 75.942L118.631 71.1989L137.604 71.1989L137.604 76.8907C137.604 109.373 111.271 135.706 78.7883 135.706L69.3019 135.706L69.3019 115.785L78.7883 115.785C100.793 115.785 118.631 97.9465 118.631 75.942Z" stroke="black" stroke-opacity="0.22" stroke-width="1.89727"/>
<path d="M23.0168 84.6695L22.8182 101.555H1.94824L2.55053 80.2745C3.79978 36.1342 39.9424 1 84.1003 1H171.754V20.9213H87.5194C52.1892 20.9213 23.4325 49.3417 23.0168 84.6695Z" stroke="black" stroke-opacity="0.22" stroke-width="1.89727"/>
<path d="M149.774 84.3275L149.936 71.1989L170.806 71.1989L170.289 88.7755C168.992 132.879 132.864 167.959 88.7415 167.959L68.3533 167.959L68.3533 148.038L85.2715 148.038C120.587 148.038 149.338 119.64 149.774 84.3275Z" stroke="black" stroke-opacity="0.22" stroke-width="1.89727"/>
<rect x="1.94863" y="115.785" width="53.1235" height="18.9727" stroke="black" stroke-opacity="0.22" stroke-width="1.89727"/>
<rect x="1.94863" y="148.038" width="53.1235" height="18.9727" stroke="black" stroke-opacity="0.22" stroke-width="1.89727"/>
<circle cx="86.3772" cy="84.4797" r="16.1268" stroke="black" stroke-opacity="0.22" stroke-width="1.89727"/>
</g>
</svg>
